<?xml version="1.0" encoding="utf-8"?>
<svg version="1.1" width="512" height="512" x="0" y="0" viewBox="0 0 32 32" style="enable-background:new 0 0 512 512" xmlns="http://www.w3.org/2000/svg">
  <defs/>
  <g>
    <path d="M18.365 28h-9.81c-1.654 0-3-1.346-3-3V7c0-1.654 1.346-3 3-3h7v5c0 2.757 2.244 5 5 5h5v7.26c0 .266.108.504.277.683a.99.99 0 0 0 .724.317 1 1 0 0 0 1-1V13c-.028-.26-.1-.516-.293-.707l-10-10c-.191-.194-.447-.265-.707-.293h-8c-2.757 0-5 2.243-5 5v18c0 2.757 2.243 5 5 5h9.81a1 1 0 0 0 1-1 .992.992 0 0 0-.277-.683.99.99 0 0 0-.724-.317zm2.19-16c-1.654 0-3-1.346-3-3V5.414L24.143 12z" data-original="#000000" style="fill: rgb(183, 118, 232);"/>
    <path d="M20.96 26.04a.985.985 0 0 0-.28.773.986.986 0 0 0 .28.64l2.095 2.095a.997.997 0 0 0 1.414 0l3.682-3.682a1 1 0 1 0-1.414-1.414l-2.975 2.975-1.388-1.388a.98.98 0 0 0-.59-.27.982.982 0 0 0-.824.27z" data-original="#000000" style="fill: rgb(183, 118, 232);"/>
  </g>
</svg>