<?xml version="1.0" encoding="UTF-8" standalone="no" ?>
<!DOCTYPE svg PUBLIC "-//W3C//DTD SVG 1.1//EN" "http://www.w3.org/Graphics/SVG/1.1/DTD/svg11.dtd">
<svg xmlns="http://www.w3.org/2000/svg" xmlns:xlink="http://www.w3.org/1999/xlink" version="1.1" width="1080" height="1080" viewBox="0 0 1080 1080" xml:space="preserve">
<desc>Created with Fabric.js 5.2.4</desc>
<defs>
</defs>
<rect x="0" y="0" width="100%" height="100%" fill="transparent"></rect>
<g transform="matrix(1 0 0 1 540 540)" id="242aadc3-1caf-4066-b7e4-2e63c8d88648"  >
<rect style="stroke: none; stroke-width: 1; stroke-dasharray: none; stroke-linecap: butt; stroke-dashoffset: 0; stroke-linejoin: miter; stroke-miterlimit: 4; fill: rgb(255,255,255); fill-rule: nonzero; opacity: 1; visibility: hidden;" vector-effect="non-scaling-stroke"  x="-540" y="-540" rx="0" ry="0" width="1080" height="1080" />
</g>
<g transform="matrix(1 0 0 1 540 540)" id="b568953f-e2b9-4d88-a301-4e6071afc45a"  >
</g>
<g transform="matrix(1.98 0 0 1.98 540 540)" id="8045c115-1b36-4eb8-b868-6f4d4d97caa6"  >
<path style="stroke: rgb(0,0,0); stroke-width: 0; stroke-dasharray: none; stroke-linecap: butt; stroke-dashoffset: 0; stroke-linejoin: miter; stroke-miterlimit: 4; fill: rgb(120,120,120); fill-rule: nonzero; opacity: 1;" vector-effect="non-scaling-stroke"  transform=" translate(-256, -256)" d="M 463.748 48.251 C 399.412 -16.085 294.735 -16.083999999999996 230.399 48.251999999999995 C 186.454 92.197 171.19 156.958 190.21800000000002 215.71300000000002 L 4.396 401.536 C 1.5813959341253878 404.3478882920606 0.0002648847278008404 408.1634687038719 0.001000000000000334 412.142 L 0.001000000000000334 497 C 0.001000000000000334 505.291 6.71 512 15.001000000000001 512 L 99.85900000000001 512 C 103.843 512 107.65200000000002 510.418 110.46400000000001 507.605 L 131.675 486.379 C 134.91397517942855 483.1387297561134 136.494752508606 478.59602062795057 135.967 474.045 L 133.33 451.252 L 164.912 448.278 C 172.08440070911135 447.60964996504714 177.76464996504714 441.92940070911135 178.433 434.757 L 181.40699999999998 403.175 L 204.2 405.826 C 208.433 406.39700000000005 212.696 404.976 215.904 402.13500000000005 C 219.096863422879 399.2846808776272 220.9241038252947 395.20903279851285 220.928 390.92900000000003 L 220.928 363 L 248.35 363 C 252.334 363 256.143 361.418 258.955 358.605 L 297.42199999999997 320.64700000000005 C 356.162 339.69000000000005 419.803 325.576 463.74799999999993 281.60100000000006 C 528.084 217.26600000000008 528.084 112.58700000000005 463.74799999999993 48.25100000000006 z M 421.313 154.321 C 403.764 171.87 375.229 171.87 357.68 154.321 C 340.13100000000003 136.772 340.13100000000003 108.237 357.68 90.68799999999999 C 375.229 73.13899999999998 403.764 73.13899999999998 421.313 90.68799999999999 C 438.86199999999997 108.237 438.861 136.772 421.313 154.321 z" stroke-linecap="round" />
</g>
</svg>