<?xml version="1.0" encoding="UTF-8" standalone="no" ?>
<!DOCTYPE svg PUBLIC "-//W3C//DTD SVG 1.1//EN" "http://www.w3.org/Graphics/SVG/1.1/DTD/svg11.dtd">
<svg xmlns="http://www.w3.org/2000/svg" xmlns:xlink="http://www.w3.org/1999/xlink" version="1.1" width="1080" height="1080" viewBox="0 0 1080 1080" xml:space="preserve">
<desc>Created with Fabric.js 5.2.4</desc>
<defs>
</defs>
<g transform="matrix(1 0 0 1 540 540)" id="242aadc3-1caf-4066-b7e4-2e63c8d88648"  >
<rect style="stroke: none; stroke-width: 1; stroke-dasharray: none; stroke-linecap: butt; stroke-dashoffset: 0; stroke-linejoin: miter; stroke-miterlimit: 4; fill: rgb(255,255,255); fill-rule: nonzero; opacity: 1; visibility: hidden;" vector-effect="non-scaling-stroke"  x="-540" y="-540" rx="0" ry="0" width="1080" height="1080" />
</g>
<g transform="matrix(1 0 0 1 540 540)" id="b568953f-e2b9-4d88-a301-4e6071afc45a"  >
</g>
<g transform="matrix(2.06 0 0 2.06 540 540)" id="a1e9003c-41ef-4030-a5cf-52421d77f1f1"  >
<path style="stroke: rgb(0,0,0); stroke-width: 0; stroke-dasharray: none; stroke-linecap: butt; stroke-dashoffset: 0; stroke-linejoin: miter; stroke-miterlimit: 4; fill: rgb(127,127,127); fill-rule: nonzero; opacity: 1;" vector-effect="non-scaling-stroke"  transform=" translate(-213.58, -256)" d="M 210.352 246.633 C 244.234 246.633 273.574 234.48000000000002 297.547 210.50300000000001 C 321.52000000000004 186.531 333.672 157.199 333.672 123.31300000000002 C 333.672 89.43700000000001 321.52000000000004 60.10200000000002 297.543 36.12100000000002 C 273.566 12.152 244.23 0 210.352 0 C 176.465 0 147.132 12.152 123.16000000000001 36.125 C 99.18800000000002 60.098 87.031 89.434 87.031 123.313 C 87.031 157.199 99.18700000000001 186.535 123.16400000000002 210.50799999999998 C 147.14100000000002 234.47699999999998 176.47700000000003 246.63299999999998 210.35200000000003 246.63299999999998 z M 426.129 393.703 C 425.437 383.727 424.03900000000004 372.84299999999996 421.98 361.352 C 419.90200000000004 349.77299999999997 417.22700000000003 338.828 414.023 328.82399999999996 C 410.71500000000003 318.484 406.21500000000003 308.27399999999994 400.653 298.48799999999994 C 394.879 288.33199999999994 388.098 279.48799999999994 380.488 272.21099999999996 C 372.531 264.59799999999996 362.789 258.477 351.523 254.01099999999997 C 340.297 249.57099999999997 327.855 247.32099999999997 314.547 247.32099999999997 C 309.32000000000005 247.32099999999997 304.266 249.46499999999997 294.504 255.82099999999997 C 287.56492597065613 260.3395295345554 280.60518625858526 264.82624329117544 273.62499999999966 269.281 C 266.918 273.55499999999995 257.832 277.55899999999997 246.609 281.18399999999997 C 235.66 284.727 224.543 286.52399999999994 213.57 286.52399999999994 C 202.59799999999998 286.52399999999994 191.48399999999998 284.7269999999999 180.523 281.18399999999997 C 169.313 277.56199999999995 160.227 273.55899999999997 153.527 269.28499999999997 C 145.75699999999998 264.32 138.72699999999998 259.789 132.629 255.81599999999997 C 122.87899999999999 249.46099999999998 117.82 247.31599999999997 112.594 247.31599999999997 C 99.28099999999999 247.31599999999997 86.844 249.56999999999996 75.621 254.01599999999996 C 64.363 258.47299999999996 54.61699999999999 264.59399999999994 46.651999999999994 272.215 C 39.047 279.496 32.26199999999999 288.335 26.495999999999995 298.488 C 20.937999999999995 308.273 16.437999999999995 318.48 13.124999999999995 328.828 C 9.924999999999994 338.832 7.249999999999995 349.77299999999997 5.171999999999994 361.352 C 3.112999999999994 372.828 1.7149999999999945 383.715 1.0229999999999944 393.715 C 0.3346211291670874 403.7782474321173 -0.006581562475707958 413.8622378320463 -3.019806626980426e-14 423.94899999999996 C 0 450.676 8.496 472.312 25.25 488.269 C 41.797 504.016 63.691 512.004 90.316 512.004 L 336.848 512.004 C 363.473 512.004 385.35900000000004 504.02000000000004 401.91 488.27000000000004 C 418.668 472.324 427.16400000000004 450.684 427.16400000000004 423.94500000000005 C 427.16 413.6290000000001 426.81300000000005 403.45300000000003 426.129 393.70300000000003 z M 426.129 393.703" stroke-linecap="round" />
</g>
</svg>