<?xml version="1.0" encoding="UTF-8" standalone="no" ?>
<!DOCTYPE svg PUBLIC "-//W3C//DTD SVG 1.1//EN" "http://www.w3.org/Graphics/SVG/1.1/DTD/svg11.dtd">
<svg xmlns="http://www.w3.org/2000/svg" xmlns:xlink="http://www.w3.org/1999/xlink" version="1.1" width="1080" height="1080" viewBox="0 0 1080 1080" xml:space="preserve">
<desc>Created with Fabric.js 5.2.4</desc>
<defs>
</defs>
<rect x="0" y="0" width="100%" height="100%" fill="transparent"></rect>
<g transform="matrix(1 0 0 1 540 540)" id="06e2a779-61e9-41da-bf9b-4db178f3548b"  >
<rect style="stroke: none; stroke-width: 1; stroke-dasharray: none; stroke-linecap: butt; stroke-dashoffset: 0; stroke-linejoin: miter; stroke-miterlimit: 4; fill: rgb(255,255,255); fill-rule: nonzero; opacity: 1; visibility: hidden;" vector-effect="non-scaling-stroke"  x="-540" y="-540" rx="0" ry="0" width="1080" height="1080" />
</g>
<g transform="matrix(1 0 0 1 540 540)" id="b00e511f-5ffa-4bf9-9320-853e565842d4"  >
</g>
<g transform="matrix(2.04 0 0 2.04 540 459.53)" id="68fab428-845b-4c1e-90ae-20d2f3583720"  >
<path style="stroke: rgb(0,0,0); stroke-width: 0; stroke-dasharray: none; stroke-linecap: butt; stroke-dashoffset: 0; stroke-linejoin: miter; stroke-miterlimit: 4; fill: rgb(255,255,255); fill-rule: nonzero; opacity: 1;" vector-effect="non-scaling-stroke"  transform=" translate(-266.17, -266.17)" d="M 471.998 241.286 C 479.568 231.5 485.578 223.648 490.01599999999996 217.724 C 521.981 175.226 535.836 148.07799999999997 531.5899999999999 136.242 L 529.9239999999999 133.47 C 528.8169999999999 131.805 525.9469999999999 130.276 521.3319999999999 128.892 C 516.7109999999999 127.509 510.79899999999986 127.288 503.5959999999999 128.201 L 423.7739999999999 128.76399999999998 C 421.92737245761276 128.58012986455756 420.0651762420785 128.6231165400469 418.22899999999987 128.89199999999997 C 416.38099999999986 129.17299999999997 415.18199999999985 129.45499999999996 414.62399999999985 129.72399999999996 C 414.06699999999984 130.00599999999997 413.60799999999983 130.23199999999997 413.2409999999999 130.41599999999997 L 412.13399999999984 131.24799999999996 C 411.20999999999987 131.79899999999995 410.1949999999998 132.77199999999996 409.0869999999998 134.16199999999995 C 407.97799999999984 135.55099999999996 407.04799999999983 137.16099999999994 406.3139999999998 139.01499999999996 C 397.62999999999977 161.37099999999995 387.7459999999998 182.16099999999994 376.6579999999998 201.37799999999996 C 369.81999999999977 212.83499999999995 363.5349999999998 222.77399999999994 357.8139999999998 231.16999999999996 C 352.0849999999998 239.58499999999995 347.2809999999998 245.77299999999997 343.3999999999998 249.73799999999997 C 339.5209999999998 253.70999999999998 336.00699999999983 256.904 332.8689999999998 259.29799999999994 C 329.7229999999998 261.70899999999995 327.3239999999998 262.71899999999994 325.6659999999998 262.3519999999999 C 324.0886072931356 262.0082521095822 322.51736560580196 261.63686164921944 320.9529999999998 261.23799999999994 C 318.3649999999998 259.5799999999999 316.2829999999998 257.32099999999997 314.7169999999998 254.45099999999994 C 313.1449999999998 251.59399999999994 312.08599999999984 247.98799999999994 311.5279999999998 243.64299999999994 C 310.9769999999998 239.30399999999995 310.6469999999998 235.55899999999994 310.5609999999998 232.41299999999995 C 310.4629999999998 229.27399999999994 310.51199999999983 224.84299999999996 310.7019999999998 219.10799999999995 C 310.88599999999985 213.37899999999993 310.9769999999998 209.50599999999994 310.9769999999998 207.46799999999996 C 310.9769999999998 200.45399999999995 311.1179999999998 192.82899999999995 311.3949999999998 184.60399999999996 C 311.6699999999998 176.38499999999996 311.9029999999998 169.86699999999996 312.0859999999998 165.06199999999995 C 312.2699999999998 160.26399999999995 312.36099999999976 155.17799999999994 312.36099999999976 149.81699999999995 C 312.36099999999976 144.46799999999996 312.03699999999975 140.25699999999995 311.38599999999974 137.20399999999995 C 310.7331184076914 134.15369816123376 309.75901905154996 131.18111967181113 308.47999999999973 128.33599999999993 C 307.1829999999997 125.47799999999995 305.2909999999997 123.25599999999996 302.79399999999976 121.68999999999996 C 300.2979999999998 120.11699999999996 297.20599999999973 118.87499999999996 293.51099999999974 117.94399999999996 C 283.71199999999976 115.72199999999997 271.2399999999997 114.53499999999995 256.09299999999973 114.33999999999996 C 221.72299999999973 113.98499999999996 199.64199999999974 116.19999999999996 189.84999999999974 120.99799999999996 C 185.96999999999974 123.03599999999996 182.45699999999974 125.80199999999996 179.31799999999973 129.31499999999997 C 175.98899999999972 133.38499999999996 175.52999999999972 135.60599999999997 177.93499999999972 135.96099999999996 C 189.02399999999972 137.62599999999995 196.87099999999973 141.60399999999996 201.49099999999973 147.88299999999995 L 203.15599999999972 151.20599999999996 C 204.44699999999972 153.61699999999996 205.73899999999972 157.86499999999995 207.03599999999972 163.95999999999995 C 208.32799999999972 170.05599999999995 209.1599999999997 176.79999999999995 209.53299999999973 184.19299999999996 C 210.45699999999974 197.68099999999995 210.45699999999974 209.22399999999996 209.53299999999973 218.83899999999994 C 208.60899999999972 228.45299999999995 207.73399999999972 235.93199999999993 206.90199999999973 241.28099999999995 C 206.06899999999973 246.64199999999994 204.82099999999974 250.98099999999994 203.16199999999972 254.30399999999995 C 201.49699999999973 257.63899999999995 200.38999999999973 259.67099999999994 199.8329999999997 260.41099999999994 C 199.27599999999973 261.1449999999999 198.81699999999972 261.60999999999996 198.4499999999997 261.79499999999996 C 196.0615973985365 262.7122711752544 193.52448464771834 263.18111496659344 190.9659999999997 263.17799999999994 C 188.3769999999997 263.17799999999994 185.23699999999968 261.87999999999994 181.54099999999968 259.29099999999994 C 177.84399999999968 256.7149999999999 174.0069999999997 253.15299999999993 170.04099999999968 248.62399999999994 C 166.06299999999968 244.10199999999995 161.5889999999997 237.76799999999994 156.5949999999997 229.63399999999993 C 151.6069999999997 221.51299999999992 146.4289999999997 211.89799999999994 141.07399999999967 200.81499999999994 L 136.64299999999966 192.77299999999994 C 133.87099999999967 187.60799999999995 130.08199999999965 180.07399999999993 125.27799999999966 170.18999999999994 C 120.47399999999968 160.30599999999995 116.21999999999966 150.74699999999993 112.52999999999966 141.49999999999994 C 111.04899999999967 137.62599999999995 108.83299999999966 134.66999999999993 105.87799999999966 132.63199999999995 L 104.49499999999966 131.79999999999995 C 103.57099999999966 131.06499999999994 102.08999999999966 130.27599999999995 100.05799999999967 129.44899999999996 C 98.00588314332506 128.61260621401405 95.86705000451435 128.00721279774413 93.68099999999966 127.64399999999995 L 17.737999999999673 128.19499999999994 C 9.977999999999673 128.19499999999994 4.714999999999673 129.95799999999994 1.9429999999996728 133.46999999999994 L 0.8349999999996727 135.12899999999993 C 0.2749999999996726 136.05899999999994 -3.2729374765949615e-13 137.53999999999994 -3.2729374765949615e-13 139.56599999999995 C -3.2729374765949615e-13 141.60399999999996 0.5569999999996728 144.09499999999994 1.6649999999996727 147.04499999999996 C 12.753999999999673 173.10399999999996 24.810999999999673 198.23299999999995 37.83399999999967 222.43099999999995 C 50.86399999999967 246.64199999999994 62.179999999999666 266.14 71.78799999999967 280.91999999999996 C 81.39599999999967 295.71199999999993 91.18799999999968 309.65299999999996 101.16999999999967 322.77399999999994 C 111.15199999999967 335.8949999999999 117.75499999999968 344.29699999999997 120.98599999999968 347.98799999999994 C 124.21699999999967 351.6909999999999 126.75699999999968 354.46399999999994 128.60599999999968 356.30499999999995 L 135.53399999999968 362.96299999999997 C 139.9649999999997 367.395 146.4829999999997 372.70599999999996 155.07599999999968 378.9 C 163.6679999999997 385.09299999999996 173.1789999999997 391.18899999999996 183.6259999999997 397.18699999999995 C 194.0609999999997 403.19699999999995 206.2149999999997 408.08599999999996 220.0699999999997 411.881 C 233.9259999999997 415.67499999999995 247.4139999999997 417.198 260.53499999999974 416.452 L 292.40899999999976 416.452 C 298.87799999999976 415.901 303.77199999999976 413.876 307.09699999999975 410.356 L 308.2039999999998 408.973 C 308.93799999999976 407.87100000000004 309.6359999999998 406.158 310.28399999999976 403.85 C 310.92699999999974 401.543 311.2589999999998 398.997 311.2589999999998 396.231 C 311.0679999999998 388.288 311.6749999999998 381.115 313.05799999999977 374.75 C 314.44099999999975 368.373 316.01299999999975 363.575 317.7709999999998 360.332 C 319.52699999999976 357.106 321.5089999999998 354.377 323.7299999999998 352.155 C 325.9469999999998 349.933 327.5129999999998 348.60499999999996 328.4429999999998 348.14 C 329.3669999999998 347.687 330.1089999999998 347.363 330.6599999999998 347.167 C 335.0899999999998 345.691 340.3099999999998 347.12399999999997 346.3199999999998 351.46299999999997 C 352.32399999999984 355.81499999999994 357.96099999999984 361.16299999999995 363.22999999999985 367.53999999999996 C 368.49199999999985 373.917 374.8199999999998 381.07099999999997 382.2139999999998 389.02099999999996 C 389.60099999999983 396.96399999999994 396.06899999999985 402.876 401.6139999999998 406.756 L 407.1589999999998 410.092 C 410.8539999999998 412.301 415.6529999999998 414.33299999999997 421.5709999999998 416.188 C 427.4829999999998 418.03 432.6609999999998 418.495 437.0909999999998 417.57099999999997 L 508.04599999999976 416.457 C 515.0659999999998 416.457 520.5189999999998 415.307 524.3999999999997 412.993 C 528.2789999999998 410.698 530.5879999999997 408.14 531.3279999999997 405.374 C 532.0619999999998 402.60200000000003 532.1109999999998 399.475 531.4689999999997 395.95500000000004 C 530.8209999999997 392.44800000000004 530.1719999999997 390.00000000000006 529.5299999999997 388.617 C 528.8819999999997 387.23400000000004 528.2799999999997 386.071 527.7229999999997 385.153 C 518.4829999999997 368.52500000000003 500.83799999999974 348.10200000000003 474.78499999999974 323.898 L 474.2279999999997 323.34700000000004 L 473.95299999999975 323.06600000000003 L 473.67799999999977 322.79600000000005 L 473.39999999999975 322.79600000000005 C 461.56999999999977 311.523 454.0909999999997 303.946 450.95099999999974 300.06000000000006 C 445.22399999999976 292.68000000000006 443.92599999999976 285.19500000000005 447.0719999999997 277.6190000000001 C 449.2749999999997 271.8740000000001 457.58599999999973 259.76900000000006 471.9979999999997 241.2860000000001 z" stroke-linecap="round" />
</g>
</svg>